# xmcd
#
# Track frame offsets: 
#        150
#        13338
#        25876
#        39117
#        53236
#        66209
#        80304
#        94466
#        108429
#        121134
#        135314
#        146826
#        160554
#        173396
#        199879
#
# Disc length: 2932 seconds
#
# Revision: 1
# Processed by: cddbd v1.5.2PL0 Copyright (c) Steve Scherf et al.
# Submitted via: ExactAudioCopy v0.99pb3
#
DISCID=bf0b720f
DTITLE=Various Artist - The Godfather - Louisiana Swamp Blues Vol 6
DYEAR=1999
DGENRE=Blues
TTITLE0=Silas Hogan - Dark Clouds Rollin'
TTITLE1=Silas Hogan - I'm A Free Hearted Man
TTITLE2=Silas Hogan - You're Too Late Baby
TTITLE3=Silas Hogan - Hoo-Doo Blues
TTITLE4=Silas Hogan - Ain't It A Shame
TTITLE5=Silas Hogan - Mr. Charlie
TTITLE6=Silas Hogan - Lonesome La La
TTITLE7=Silas Hogan - My Starter Won't Start
TTITLE8=Silas Hogan - Rats And Roaches In My Kitchen
TTITLE9=Silas Hogan - Bad Little Puppy
TTITLE10=Silas Hogan - Airport Blues
TTITLE11=Arthur 'Guitar' Kelly - Kelly's Boogie
TTITLE12=Arthur 'Guitar' Kelly - Good Morning Heartache
TTITLE13=Arthur 'Guitar' Kelly - I Got A Funny Feeling
TTITLE14=Arthur 'Guitar' Kelly - Poor Man
EXTD=
EXTT0=
EXTT1=
EXTT2=
EXTT3=
EXTT4=
EXTT5=
EXTT6=
EXTT7=
EXTT8=
EXTT9=
EXTT10=
EXTT11=
EXTT12=
EXTT13=
EXTT14=
PLAYORDER=
